<?xml version="1.0" encoding="UTF-8"?>
<svg width="256px" height="256px" viewBox="0 0 256 256" version="1.1" xmlns="http://www.w3.org/2000/svg" preserveAspectRatio="xMidYMid">
    <defs>
        <linearGradient x1="50.0025%" y1="-.00296184%" x2="50.0025%" y2="100.003962%" id="linearGradient-1">
            <stop stop-color="#0947C9" offset="0%"></stop>
            <stop stop-color="#0C50D9" offset="100%"></stop>
        </linearGradient>
    </defs>
    <g>
        <path d="M128,0 C198.692448,0 256,57.307552 256,128 C256,198.692448 198.692448,256 128,256 C57.307552,256 0,198.692448 0,128 C0,57.307552 57.307552,0 128,0 Z M128,37.2244898 C77.9276531,37.2244898 37.2244898,77.9276531 37.2244898,128 C37.2244898,178.072347 77.9276531,218.77551 128,218.77551 C178.072347,218.77551 218.77551,178.072347 218.77551,128 C218.77551,77.9276531 178.072347,37.2244898 128,37.2244898 Z M128,64 C163.346224,64 192,92.653776 192,128 C192,163.346224 163.346224,192 128,192 C92.653776,192 64,163.346224 64,128 C64,92.653776 92.653776,64 128,64 Z" fill="url(#linearGradient-1)"></path>
    </g>
</svg>
