<?xml version="1.0" encoding="UTF-8"?>
<svg width="256px" height="240px" viewBox="0 0 256 240" version="1.1" xmlns="http://www.w3.org/2000/svg" preserveAspectRatio="xMidYMid">
    <g>
        <polygon fill="#E17726" points="250.066021 -8.89651791e-15 146.941783 81.4594939 164.895758 32.5550797"></polygon>
        <polygon fill="#E27625" points="5.87256017 -8.89651791e-15 108.205299 82.2871935 91.0425424 32.5550797"></polygon>
        <polygon fill="#E27625" points="211.614031 173.661287 182.516032 216.424005 242.915604 232.529254 260.070601 174.610208"></polygon>
        <polygon fill="#E27625" points="0 174.610208 17.0850975 232.529254 77.4846686 216.424005 48.3866704 173.661287"></polygon>
        <polygon fill="#E27625" points="73.7038649 103.498059 58.1948329 128.924491 117.789134 131.780369 115.732407 67.7707575"></polygon>
        <polygon fill="#E27625" points="182.516032 103.498059 140.955945 67.7707575 139.069705 131.780369 198.594007 128.924491"></polygon>
        <polygon fill="#E27625" points="77.4846686 216.424005 114.045911 198.951149 82.3185607 174.95494"></polygon>
        <polygon fill="#E27625" points="141.954089 198.951149 178.514832 216.424005 173.681439 174.95494"></polygon>
        <polygon fill="#D5BFB2" points="178.514832 216.424005 141.954089 198.951149 144.841474 221.76814 144.492428 232.183571"></polygon>
        <polygon fill="#D5BFB2" points="77.4846686 216.424005 111.507572 232.183571 111.228015 221.76814 114.045911 198.951149"></polygon>
        <polygon fill="#233447" points="111.925639 160.712272 81.1711524 152.053378 103.195871 142.582227"></polygon>
        <polygon fill="#233447" points="144.074361 160.712272 152.804129 142.582227 174.898337 152.053378"></polygon>
        <polygon fill="#CC6228" points="77.4846686 216.424005 82.5276804 173.661287 48.3866704 174.610208"></polygon>
        <polygon fill="#CC6228" points="173.47232 173.661287 178.514832 216.424005 207.613329 174.610208"></polygon>
        <polygon fill="#CC6228" points="198.594007 128.924491 139.069705 131.780369 144.074361 160.712272 152.804129 142.582227 174.898337 152.053378"></polygon>
        <polygon fill="#CC6228" points="81.1711524 152.053378 103.195871 142.582227 111.925639 160.712272 117.789134 131.780369 58.1948329 128.924491"></polygon>
        <polygon fill="#E27525" points="58.1948329 128.924491 82.3185607 174.95494 81.1711524 152.053378"></polygon>
        <polygon fill="#E27525" points="174.898337 152.053378 173.681439 174.95494 198.594007 128.924491"></polygon>
        <polygon fill="#E27525" points="117.789134 131.780369 111.925639 160.712272 119.146023 195.670451 121.381174 149.023394"></polygon>
        <polygon fill="#E27525" points="139.069705 131.780369 134.618826 148.95393 136.853977 195.670451 144.074361 160.712272"></polygon>
        <polygon fill="#F5841F" points="144.074361 160.712272 136.853977 195.670451 141.954089 198.951149 173.681439 174.95494 174.898337 152.053378"></polygon>
        <polygon fill="#F5841F" points="81.1711524 152.053378 82.3185607 174.95494 114.045911 198.951149 119.146023 195.670451 111.925639 160.712272"></polygon>
        <polygon fill="#C0AC9D" points="144.492428 232.183571 144.841474 221.76814 142.163228 219.557933 113.836772 219.557933 111.228015 221.76814 111.507572 232.183571 77.4846686 216.424005 89.2794073 226.274308 113.487726 243.178846 142.512274 243.178846 166.720593 226.274308 178.514832 216.424005"></polygon>
        <polygon fill="#161616" points="141.954089 198.951149 136.853977 195.670451 119.146023 195.670451 114.045911 198.951149 111.228015 221.76814 113.836772 219.557933 142.163228 219.557933 144.841474 221.76814"></polygon>
        <polygon fill="#763E1A" points="242.056931 78.1878054 250.066021 38.4312466 241.338178 0 141.954089 71.5650979 182.516032 103.498059 239.895925 118.880559 251.690164 104.813962 246.31984 100.880984 254.398419 92.9482573 248.21834 88.0476297 256.297428 81.4594939"></polygon>
        <polygon fill="#763E1A" points="5.93397863 38.4312466 13.9430686 78.1878054 0.562082344 81.4594939 8.71066011 88.0476297 2.46108142 92.9482573 10.6097592 100.880984 5.23942343 104.813962 17.0336622 118.880559 74.4135546 103.498059 114.975497 71.5650979 15.5914082 0"></polygon>
        <polygon fill="#F5841F" points="239.895925 118.880559 182.516032 103.498059 198.594007 128.924491 173.681439 174.95494 207.613329 174.610208 260.070601 174.610208"></polygon>
        <polygon fill="#F5841F" points="74.4135546 103.498059 17.0336622 118.880559 -4.26325641e-14 174.610208 48.3866704 174.610208 82.3185607 174.95494 58.1948329 128.924491"></polygon>
        <polygon fill="#F5841F" points="144.074361 160.712272 141.954089 71.5650979 164.895758 32.5550797 91.0425424 32.5550797 114.975497 71.5650979 111.925639 160.712272 119.006534 195.878875 119.146023 195.670451 136.853977 195.670451 136.993466 195.878875"></polygon>
    </g>
</svg>
